<?xml version="1.0" encoding="UTF-8"?>
<svg width="700pt" height="700pt" version="1.1" viewBox="0 0 700 700" xmlns="http://www.w3.org/2000/svg">
 <path d="m287 113.4-112 334.6h43.398l33.602-105h116.2l35 105h44.801l-119-334.6zm-26.602 194.6 32.199-96.602c5.6016-21 11.199-40.602 16.801-60.199h1.3984c4.1992 19.602 9.8008 39.199 16.801 61.602l32.199 96.602-99.398-0.003906zm219.8-193.2h-19.602l-44.801 134.4h18.203l14-42h46.199l14 42h18.199zm-29.398 77 12.602-39.199c2.8008-8.3984 4.1992-16.801 7-23.801 1.3984 8.3984 4.1992 15.398 7 23.801l12.602 39.199z" fill-rule="evenodd"/>
</svg>
