<?xml version="1.0" encoding="UTF-8"?>
<svg width="700pt" height="700pt" version="1.1" viewBox="0 0 700 700" xmlns="http://www.w3.org/2000/svg">
 <path d="m448 414.4c-4.1992 0-8.3984-1.3984-11.199-4.1992-2.8008-1.3984-4.1992-4.1992-5.6016-7l-98-282.8-44.801 19.602v18.199l-56 161c-7 21-14 39.199-18.199 51.801-5.6016 12.602-9.8008 22.398-14 29.398s-8.3984 11.199-11.199 14c-4.1992 2.8008-8.3984 4.1992-14 5.6016l-14 4.1992-1.3984 16.801 103.6-1.3984-1.3984-16.801-19.602-4.1992c-4.1992 0-7-1.3984-8.3984-4.1992-1.3984-1.3984-2.8008-4.1992-2.8008-8.3984 0-4.1992 1.3984-9.8008 2.8008-15.398 1.3984-7 4.1992-14 7-23.801l11.199-37.801 102.2-1.3984 12.602 37.801c2.8008 9.8008 5.6016 18.199 8.3984 25.199 1.3984 5.6016 2.8008 11.199 2.8008 15.398 0 4.1992-1.3984 7-2.8008 8.3984-2.8008 1.3984-5.6016 2.8008-9.8008 4.1992l-23.801 4.1992-1.3984 16.801 135.8-1.3984-1.4023-18.203zm-187.6-106.4 43.398-133h2.8008l43.398 133zm231-58.801-11.199 1.3984v7l58.801-1.3984-1.3984-7-11.199-2.8008c-1.3984 0-4.1992-1.3984-4.1992-1.3984-1.3984-1.3984-1.3984-1.3984-2.8008-2.8008l-43.402-123.2-19.602 9.8008v8.3984l-23.801 70c-2.8008 9.8008-5.6016 16.801-8.3984 22.398-2.8008 5.6016-4.1992 9.8008-5.6016 12.602-1.3984 2.8008-2.8008 5.6016-5.6016 5.6016-1.3984 1.3984-4.1992 1.3984-5.6016 2.8008l-5.5938 1.3984v7h46.199l-2.8008-7-8.3984-1.3984c-1.3984 0-2.8008-1.3984-4.1992-1.3984-1.3984-1.3984-1.3984-2.8008-1.3984-4.1992 0-1.3984 0-4.1992 1.3984-7 1.3984-2.8008 1.3984-5.6016 2.8008-9.8008l5.6016-16.801h44.801l5.6016 16.801c1.3984 4.1992 2.8008 8.3984 4.1992 11.199 1.3984 2.8008 1.3984 5.6016 1.3984 7 0 1.3984 0 2.8008-1.3984 2.8008-1.4062-1.4023-2.8047-0.003906-4.207-0.003906zm-47.598-47.598 18.199-58.801h1.3984l19.602 57.398z" fill-rule="evenodd"/>
</svg>
